<svg width="30" height="30" viewBox="0 0 30 30" fill="none" xmlns="http://www.w3.org/2000/svg">
<rect width="30" height="30" rx="8" fill="white"/>
<path d="M19.7816 19.8104C19.6597 19.9322 19.4942 20.0005 19.3218 20H19.32C19.1469 20 18.9811 19.9307 18.8594 19.8078L15.1073 16.0322C15.079 16.0039 15.0407 15.9881 15.0007 15.9881C14.9608 15.9881 14.9224 16.0039 14.8942 16.0322L11.1415 19.8078C11.0199 19.9307 10.8542 19.9999 10.6813 19.9999H10.6795C10.5068 20 10.3411 19.9315 10.2188 19.8095C10.0965 19.6875 10.0277 19.522 10.0273 19.3493C10.0271 19.1765 10.0953 19.0108 10.2172 18.8883L13.9761 15.1058C14.0342 15.0472 14.0342 14.9527 13.9761 14.8941L10.2172 11.1116C10.0953 10.9891 10.0271 10.8234 10.0273 10.6506C10.0277 10.4779 10.0965 10.3124 10.2188 10.1904C10.3411 10.0684 10.5068 9.99995 10.6795 10H10.6813C10.8544 10 11.0202 10.0693 11.1419 10.1922L14.8941 13.9678C14.9223 13.9961 14.9606 14.0119 15.0006 14.0119C15.0406 14.0119 15.0789 13.9961 15.1071 13.9678L18.8598 10.1922C18.9815 10.0693 19.1471 10.0001 19.32 10.0001H19.3219H19.3218C19.4945 10 19.6603 10.0685 19.7825 10.1905C19.9048 10.3125 19.9736 10.478 19.974 10.6507C19.9743 10.8235 19.906 10.9892 19.7842 11.1117L16.0252 14.8942C15.9672 14.9528 15.9672 15.0473 16.0252 15.1059L19.7842 18.8884C19.9059 19.0111 19.974 19.1771 19.9735 19.35C19.9731 19.5228 19.904 19.6884 19.7816 19.8104Z" fill="black"/>
</svg>
