<svg width="30" height="30" viewBox="0 0 30 30" fill="none" xmlns="http://www.w3.org/2000/svg">
<path d="M23.6156 6.31718C23.4913 6.19268 23.3991 6.10045 23.3119 6.02291C21.7814 4.65903 19.4718 4.65903 17.9414 6.02291C17.8542 6.10045 17.7622 6.19268 17.6377 6.31701L17.125 6.82984L23.1463 12.8512L23.659 12.3385C23.7835 12.2142 23.8757 12.122 23.9534 12.0348C25.3171 10.5043 25.3171 8.19466 23.9534 6.66429C23.8757 6.57712 23.7835 6.48489 23.659 6.36039L23.6156 6.31718Z" fill="#737373"/>
<path d="M15.6981 8.25684L21.7195 14.2782L13.4758 22.5218C12.9665 23.0316 12.5805 23.418 12.1021 23.6893C11.6239 23.9606 11.0941 24.0933 10.3953 24.2688L9.01265 24.6165C8.35167 24.7827 7.74927 24.9344 7.26277 24.9827C6.74587 25.0339 6.08285 24.9999 5.55968 24.4835C5.03651 23.967 4.99413 23.3043 5.03872 22.7869C5.08078 22.2999 5.2247 21.6955 5.38248 21.0325L5.71458 19.6361C5.88519 18.9179 6.01442 18.3735 6.28908 17.8819C6.56375 17.3902 6.95954 16.9947 7.48185 16.4731L15.6981 8.25684Z" fill="#737373"/>
<path d="M16.6537 22.4163C16.0964 22.4163 15.6445 22.8681 15.6445 23.4254C15.6445 23.9827 16.0964 24.4344 16.6537 24.4344H23.7168C24.2741 24.4344 24.7257 23.9827 24.7257 23.4254C24.7257 22.8681 24.2741 22.4163 23.7168 22.4163H16.6537Z" fill="#737373"/>
</svg>
