<svg width="19" height="20" viewBox="0 0 19 20" fill="none" xmlns="http://www.w3.org/2000/svg">
<path d="M17.5559 2.52439L9.70827 0.0964366C9.50307 0.0326774 9.28881 0.000159143 9.07303 0C8.85726 0.000159388 8.64298 0.0326766 8.43779 0.0964366L0.590168 2.52439C0.436308 2.57189 0.301911 2.6637 0.205433 2.78724C0.109122 2.91077 0.0557658 3.05981 0.0527461 3.21345V10.219C0.0495582 12.2324 0.694687 14.1984 1.90194 15.8531C3.25047 17.7058 5.22079 19.0691 7.49063 19.7199C7.77621 19.8009 8.06815 19.871 8.36633 19.9307C8.83362 20.0231 9.31599 20.0231 9.78328 19.9307C12.1311 19.4635 14.2384 18.2434 15.7517 16.4751C17.2648 14.7067 18.0917 12.4977 18.0933 10.2187V3.21313C18.0959 3.05517 18.045 2.90055 17.9484 2.77206C17.8516 2.64359 17.714 2.54779 17.5559 2.49901L17.5559 2.52439ZM16.4997 11.2973C16.3044 12.852 15.6543 14.3239 14.6233 15.5456C13.5924 16.7673 12.2216 17.6903 10.6667 18.2096C10.2972 18.3267 9.89087 18.2679 9.57507 18.0513C9.25913 17.8348 9.07239 17.487 9.07303 17.117V9.99722H2.76658C2.44561 9.99722 2.1377 9.87608 1.91086 9.66041C1.68384 9.44491 1.55633 9.15242 1.55633 8.84748V4.56286C1.55616 4.31898 1.63754 4.08131 1.78888 3.8843C1.94023 3.68712 2.15365 3.54095 2.39831 3.46669L7.49089 1.91353C7.85952 1.80036 8.26289 1.86173 8.57598 2.07867C8.88907 2.29561 9.07381 2.64167 9.07313 3.0097V9.9973H15.2932C15.6429 9.99555 15.9763 10.1374 16.2075 10.3866C16.4387 10.6357 16.5453 10.9677 16.4996 11.297L16.4997 11.2973Z" fill="#191919"/>
</svg>
